# xmcd
#
# Track frame offsets:
#	150
#	15675
#	43390
#	63610
#	84537
#	105917
#	128257
#	157407
#	179297
#	207732
#	234532
#	253715
#	279675
#	298652
#
# Disc length: 4283 seconds
#
# Revision: 393249
# Processed by: cddbd v1.5.2PL0 Copyright (c) Steve Scherf et al.
# Submitted via: EZCDAudioConverter 8.0.2.1
#
DISCID=d210b90e
DTITLE=Various Artist - Mùa Xuân Hoa Đào
DYEAR=1995
DGENRE=World Pop
TTITLE0=Thái Hiền - Khúc hát thanh xuân
TTITLE1=Duy Quang - Phút giao mùa
TTITLE2=Hương Lan - Mùa Xuân Hoa Đào
TTITLE3=Mai Hương - Lá thư mùa xuân
TTITLE4=Elvis Phương - Phiên gác đêm xuân
TTITLE5=Ngọc Lan - Tôi đi tìm lại một mùa xuân
TTITLE6=Lưu Hồng - Mộng đêm xuân
TTITLE7=Khánh Ly - Xuân thì
TTITLE8=Từ Công Phụng - Mùa xuân trên đỉnh bình yên
TTITLE9=Ngọc Lan - Hoa xuân
TTITLE10=Thư Lê - Đêm xuân
TTITLE11=Duy Quang - Đồn vắng mùa xuân
TTITLE12=Thái Hiền - Trên đồi xuân
TTITLE13=Sĩ Phú - Xuân tha hương
EXTD=
EXTT0=
EXTT1=
EXTT2=
EXTT3=
EXTT4=
EXTT5=
EXTT6=
EXTT7=
EXTT8=
EXTT9=
EXTT10=
EXTT11=
EXTT12=
EXTT13=
PLAYORDER=
